<svg xmlns="http://www.w3.org/2000/svg" viewBox="0 0 512 512" style="height: 512px; width: 512px;"><defs><filter id="shadow-1" height="300%" width="300%" x="-100%" y="-100%"><feFlood flood-color="rgba(252, 136, 252, 1)" result="flood"></feFlood><feComposite in="flood" in2="SourceGraphic" operator="atop" result="composite"></feComposite><feGaussianBlur in="composite" stdDeviation="15" result="blur"></feGaussianBlur><feOffset result="offset"></feOffset><feComposite in="SourceGraphic" in2="offset" operator="over"></feComposite></filter></defs><polygon points="384,477.7,128,477.7,0,256,128,34.3,384,34.3,512,256" fill="#000000" fill-opacity="1"></polygon><g class="" transform="translate(0,0)" style=""><path d="M389 40.84c18.5 0 35 18.79 35 44.03 0 25.33-16.5 44.03-35 44.03s-35-18.7-35-44.03c0-25.24 16.5-44.03 35-44.03zm-132.9 0c18.4 0 35 18.79 35 44.03 0 25.33-16.6 44.03-35 44.03-18.5 0-35.1-18.7-35.1-44.03 0-25.24 16.6-44.03 35.1-44.03zm-133 0c18.5 0 35 18.79 35 44.03 0 25.33-16.5 44.03-35 44.03s-35.09-18.7-35.09-44.03c0-25.24 16.59-44.03 35.09-44.03zm133 109.06c64 2 118 2 182.8 4.2 30.9 17.8 45.2 109 44.3 140.7l-17.6 17.7c-7.7-42.8-17.4-99.9-33.5-112.6v87.6l4.1 183.7H414l-16.7-184.7h-18l-16.7 184.7h-22.3l4.2-183.7-8-88.5h-29.3l-7.2 88.2 4.2 183.7h-22.3l-16.8-184.7h-18l-16.8 184.7h-22.2l4.2-183.7L205 199h-29.3l-8 88.5 4.2 183.7h-22.3l-16.7-184.7h-18L98.01 471.2h-22.2l4.2-183.7v-87.6c-16.2 12.7-25.9 69.8-33.6 112.6l-17.6-17.7c-.9-31.7 13.5-122.9 44.3-140.7 64.99-2.2 118.99-2.2 182.99-4.2z" fill="#fc88fc" fill-opacity="1" transform="translate(51.2, 51.2) scale(0.8, 0.8) rotate(0, 256, 256) skewX(0) skewY(0)" filter="url(#shadow-1)"></path></g></svg>