<svg xmlns="http://www.w3.org/2000/svg" viewBox="0 0 512 512" style="height: 512px; width: 512px;"><defs><filter id="shadow-1" height="300%" width="300%" x="-100%" y="-100%"><feFlood flood-color="rgba(144, 19, 254, 1)" result="flood"></feFlood><feComposite in="flood" in2="SourceGraphic" operator="atop" result="composite"></feComposite><feGaussianBlur in="composite" stdDeviation="15" result="blur"></feGaussianBlur><feOffset result="offset"></feOffset><feComposite in="SourceGraphic" in2="offset" operator="over"></feComposite></filter></defs><path d="M0 0h512v512H0z" fill="#000000" fill-opacity="1"></path><g class="" transform="translate(0,0)" style=""><path d="M256 105c-60.25 0-124.749 38.39-167.945 77.66-34.931 31.756-58.722 62.36-66.88 73.34 8.158 10.98 31.949 41.584 66.88 73.34C131.25 368.61 195.75 407 256 407s124.749-38.39 167.945-77.66c34.931-31.756 58.722-62.36 66.88-73.34-8.158-10.98-31.949-41.584-66.88-73.34C380.75 143.39 316.25 105 256 105zm0 23a128 128 0 0 1 63.486 16.969A48 48 0 0 0 288 190a48 48 0 0 0 .023.453A72.362 72.362 0 0 0 265 183.576V160h-18v23.576c-33.034 4.095-59.33 30.39-63.424 63.424H160v18h23.576c4.095 33.034 30.39 59.33 63.424 63.424V352h18v-23.576c33.034-4.095 59.33-30.39 63.424-63.424H352v-18h-23.576a72.33 72.33 0 0 0-1.98-10.014A48 48 0 0 0 336 238a48 48 0 0 0 41.023-23.195A128 128 0 0 1 384 256a128 128 0 0 1-128 128 128 128 0 0 1-128-128 128 128 0 0 1 128-128zm-9 73.738V224h18v-22.262c23.237 3.792 41.47 22.025 45.262 45.262H288v18h22.262c-3.792 23.237-22.025 41.47-45.262 45.262V288h-18v22.262c-23.237-3.792-41.47-22.025-45.262-45.262H224v-18h-22.262c3.792-23.237 22.025-41.47 45.262-45.262z" fill="#ffffff" fill-opacity="1" stroke="#9013fe" stroke-opacity="1" stroke-width="5" transform="translate(51.2, 51.2) scale(0.8, 0.8) rotate(0, 256, 256) skewX(0) skewY(0)" filter="url(#shadow-1)"></path></g></svg>