<svg xmlns="http://www.w3.org/2000/svg" viewBox="0 0 512 512" style="height: 64px; width: 64px;"><defs><filter id="shadow-1" height="300%" width="300%" x="-100%" y="-100%"><feFlood flood-color="rgba(0, 0, 0, 1)" result="flood"></feFlood><feComposite in="flood" in2="SourceGraphic" operator="atop" result="composite"></feComposite><feGaussianBlur in="composite" stdDeviation="10" result="blur"></feGaussianBlur><feOffset dx="0" dy="0" result="offset"></feOffset><feComposite in="SourceGraphic" in2="offset" operator="over"></feComposite></filter><linearGradient x1="0" x2="0" y1="0" y2="1" id="lorc-sprint-gradient-0"><stop offset="0%" stop-color="#f8e71c" stop-opacity="1"></stop><stop offset="100%" stop-color="#593f03" stop-opacity="1"></stop></linearGradient></defs><circle cx="256" cy="256" r="256" fill="url(#lorc-sprint-gradient-0)"></circle><g class="" transform="translate(-14,-22)" style=""><path d="M169.53 16.344L259.345 88 337 92.28l-1.03 18.657-161.376-8.906-118.78-4.905 227.28 68.03-197.72 246.75-14.53-17.655-49.22 96.625 248.69-202.78 51.81 11.592-38.78 40.594L270.5 329.5l-57.28 84.125L444.843 273.47 328 241.06l100.22-81.718c1.132.46 2.3.898 3.5 1.22 23.324 6.248 49.764-16.835 59.06-51.533 9.298-34.695-2.08-67.874-25.405-74.124-23.325-6.25-49.765 16.802-59.063 51.5-1.467 5.476-2.403 10.918-2.875 16.22L169.53 16.343z" fill="#fff" fill-opacity="1" transform="translate(76.8, 76.8) scale(0.7, 0.7) rotate(0, 256, 256) skewX(0) skewY(0)" filter="url(#shadow-1)"></path></g></svg>