<svg xmlns="http://www.w3.org/2000/svg" viewBox="0 0 512 512" style="height: 512px; width: 512px;"><defs><filter id="shadow-2" height="300%" width="300%" x="-100%" y="-100%"><feFlood flood-color="rgba(208, 2, 27, 1)" result="flood"></feFlood><feComposite in="flood" in2="SourceGraphic" operator="atop" result="composite"></feComposite>0<feOffset dy="10" result="offset"></feOffset><feComposite in="SourceGraphic" in2="offset" operator="over"></feComposite></filter><filter id="shadow-3" height="300%" width="300%" x="-100%" y="-100%"><feFlood flood-color="rgba(208, 2, 27, 1)" result="flood"></feFlood><feComposite in="flood" in2="SourceGraphic" operator="atop" result="composite"></feComposite>0<feOffset dy="10" result="offset"></feOffset><feComposite in="SourceGraphic" in2="offset" operator="over"></feComposite></filter><linearGradient x1="0" x2="0" y1="0" y2="1" id="sbed-shield-gradient-0"><stop offset="0%" stop-color="#e6e6e6" stop-opacity="1"></stop><stop offset="100%" stop-color="#171717" stop-opacity="1"></stop></linearGradient></defs><polygon points="379,469.04,133,469.04,10,256,133,42.96,379,42.96,502,256" fill="url(#sbed-shield-gradient-0)" stroke="#000000" stroke-opacity="1" stroke-width="10"></polygon><g class="" transform="translate(0,0)" style=""><path d="M256 16c25 24 100 72 150 72v96c0 96-75 240-150 312-75-72-150-216-150-312V88c50 0 125-48 150-72z" fill="#ffffff" fill-opacity="1" stroke="#000000" stroke-opacity="1" stroke-width="10" transform="translate(76.8, 76.8) scale(0.7, 0.7) rotate(0, 256, 256) skewX(0) skewY(0)"></path></g></svg>